<svg width="62" height="15" viewBox="0 0 62 15" fill="none" xmlns="http://www.w3.org/2000/svg">
<path d="M10.75 2.61111V3.22222H9.5V2.61111C9.5 2.275 9.21875 2 8.875 2H5.125C4.78125 2 4.5 2.275 4.5 2.61111V3.22222H3.25V2.61111C3.25 2.275 2.96875 2 2.625 2C2.28125 2 2 2.275 2 2.61111V12.3889C2 12.725 2.28125 13 2.625 13C2.96875 13 3.25 12.725 3.25 12.3889V11.7778H4.5V12.3889C4.5 12.725 4.78125 13 5.125 13H8.875C9.21875 13 9.5 12.725 9.5 12.3889V11.7778H10.75V12.3889C10.75 12.725 11.0312 13 11.375 13C11.7188 13 12 12.725 12 12.3889V2.61111C12 2.275 11.7188 2 11.375 2C11.0312 2 10.75 2.275 10.75 2.61111ZM4.5 10.5556H3.25V9.33333H4.5V10.5556ZM4.5 8.11111H3.25V6.88889H4.5V8.11111ZM4.5 5.66667H3.25V4.44444H4.5V5.66667ZM10.75 10.5556H9.5V9.33333H10.75V10.5556ZM10.75 8.11111H9.5V6.88889H10.75V8.11111ZM10.75 5.66667H9.5V4.44444H10.75V5.66667Z" fill="black"/>
<path d="M19.78 4.008C20.028 4.136 20.152 4.34 20.152 4.62C20.152 4.788 20.092 4.952 19.972 5.112C19.844 5.28 19.68 5.364 19.48 5.364C19.344 5.364 19.208 5.328 19.072 5.256C18.68 5.072 18.256 4.98 17.8 4.98C17.24 4.98 16.752 5.1 16.336 5.34C15.92 5.572 15.6 5.904 15.376 6.336C15.152 6.76 15.04 7.248 15.04 7.8C15.04 8.744 15.292 9.46 15.796 9.948C16.308 10.436 16.976 10.68 17.8 10.68C18.288 10.68 18.712 10.588 19.072 10.404C19.216 10.34 19.344 10.308 19.456 10.308C19.664 10.308 19.84 10.396 19.984 10.572C20.104 10.724 20.164 10.888 20.164 11.064C20.164 11.192 20.132 11.308 20.068 11.412C20.004 11.516 19.912 11.596 19.792 11.652C19.168 11.964 18.504 12.12 17.8 12.12C17.016 12.12 16.296 11.956 15.64 11.628C14.984 11.292 14.46 10.8 14.068 10.152C13.676 9.504 13.48 8.72 13.48 7.8C13.48 6.984 13.664 6.252 14.032 5.604C14.408 4.956 14.924 4.452 15.58 4.092C16.236 3.724 16.976 3.54 17.8 3.54C18.512 3.54 19.172 3.696 19.78 4.008ZM22.6594 11.268C22.6594 11.476 22.5914 11.652 22.4554 11.796C22.3194 11.932 22.1474 12 21.9394 12C21.7314 12 21.5594 11.932 21.4234 11.796C21.2874 11.652 21.2194 11.476 21.2194 11.268V6.312C21.2194 6.104 21.2874 5.932 21.4234 5.796C21.5594 5.652 21.7314 5.58 21.9394 5.58C22.1474 5.58 22.3194 5.652 22.4554 5.796C22.5914 5.932 22.6594 6.104 22.6594 6.312V11.268ZM21.9274 4.8C21.6554 4.8 21.4634 4.756 21.3514 4.668C21.2394 4.58 21.1834 4.424 21.1834 4.2V3.972C21.1834 3.748 21.2434 3.592 21.3634 3.504C21.4834 3.416 21.6754 3.372 21.9394 3.372C22.2194 3.372 22.4154 3.416 22.5274 3.504C22.6394 3.592 22.6954 3.748 22.6954 3.972V4.2C22.6954 4.432 22.6354 4.592 22.5154 4.68C22.4034 4.76 22.2074 4.8 21.9274 4.8ZM27.5714 5.46C28.3874 5.46 28.9514 5.704 29.2634 6.192C29.5754 6.672 29.7314 7.34 29.7314 8.196V11.268C29.7314 11.476 29.6634 11.652 29.5274 11.796C29.3914 11.932 29.2194 12 29.0114 12C28.8034 12 28.6314 11.932 28.4954 11.796C28.3594 11.652 28.2914 11.476 28.2914 11.268V8.196C28.2914 7.756 28.1994 7.412 28.0154 7.164C27.8314 6.908 27.5154 6.78 27.0674 6.78C26.6034 6.78 26.2394 6.916 25.9754 7.188C25.7114 7.452 25.5794 7.788 25.5794 8.196V11.268C25.5794 11.476 25.5114 11.652 25.3754 11.796C25.2394 11.932 25.0674 12 24.8594 12C24.6514 12 24.4794 11.932 24.3434 11.796C24.2074 11.652 24.1394 11.476 24.1394 11.268V6.312C24.1394 6.104 24.2074 5.932 24.3434 5.796C24.4794 5.652 24.6514 5.58 24.8594 5.58C25.0674 5.58 25.2394 5.652 25.3754 5.796C25.5114 5.932 25.5794 6.104 25.5794 6.312V6.516C25.7954 6.228 26.0754 5.98 26.4194 5.772C26.7714 5.564 27.1554 5.46 27.5714 5.46ZM37.0478 8.64C37.0398 8.832 36.9638 8.988 36.8198 9.108C36.6758 9.228 36.5078 9.288 36.3158 9.288H32.3558C32.4518 9.76 32.6718 10.132 33.0158 10.404C33.3598 10.668 33.7478 10.8 34.1798 10.8C34.5078 10.8 34.7638 10.772 34.9478 10.716C35.1318 10.652 35.2758 10.588 35.3798 10.524C35.4918 10.452 35.5678 10.404 35.6078 10.38C35.7518 10.308 35.8878 10.272 36.0158 10.272C36.1838 10.272 36.3278 10.332 36.4478 10.452C36.5678 10.572 36.6278 10.712 36.6278 10.872C36.6278 11.088 36.5158 11.284 36.2918 11.46C36.0678 11.644 35.7678 11.8 35.3918 11.928C35.0158 12.056 34.6358 12.12 34.2518 12.12C33.5798 12.12 32.9918 11.98 32.4878 11.7C31.9918 11.42 31.6078 11.036 31.3358 10.548C31.0638 10.052 30.9278 9.496 30.9278 8.88C30.9278 8.192 31.0718 7.588 31.3598 7.068C31.6478 6.548 32.0278 6.152 32.4998 5.88C32.9718 5.6 33.4758 5.46 34.0118 5.46C34.5398 5.46 35.0358 5.604 35.4998 5.892C35.9718 6.18 36.3478 6.568 36.6278 7.056C36.9078 7.544 37.0478 8.072 37.0478 8.64ZM34.0118 6.78C33.0838 6.78 32.5358 7.216 32.3678 8.088H35.5118V8.004C35.4798 7.668 35.3158 7.38 35.0198 7.14C34.7238 6.9 34.3878 6.78 34.0118 6.78ZM43.9128 3.6C44.0808 3.6 44.2168 3.652 44.3208 3.756C44.4328 3.852 44.4888 3.984 44.4888 4.152C44.4888 4.32 44.4328 4.452 44.3208 4.548C44.2168 4.644 44.0808 4.692 43.9128 4.692H41.7768V11.424C41.7768 11.584 41.7168 11.72 41.5968 11.832C41.4848 11.944 41.3408 12 41.1648 12C40.9888 12 40.8408 11.944 40.7208 11.832C40.6088 11.72 40.5527 11.584 40.5527 11.424V4.692H38.4288C38.2608 4.692 38.1208 4.644 38.0088 4.548C37.9048 4.444 37.8528 4.308 37.8528 4.14C37.8528 3.98 37.9048 3.852 38.0088 3.756C38.1208 3.652 38.2608 3.6 38.4288 3.6H43.9128ZM49.6317 5.628C49.7997 5.628 49.9357 5.684 50.0397 5.796C50.1517 5.9 50.2077 6.04 50.2077 6.216V11.424C50.2077 11.584 50.1517 11.72 50.0397 11.832C49.9357 11.944 49.7997 12 49.6317 12C49.4637 12 49.3277 11.948 49.2237 11.844C49.1197 11.732 49.0677 11.592 49.0677 11.424V11.112C48.8597 11.392 48.5757 11.632 48.2157 11.832C47.8557 12.024 47.4677 12.12 47.0517 12.12C46.5077 12.12 46.0117 11.98 45.5637 11.7C45.1237 11.42 44.7757 11.032 44.5197 10.536C44.2717 10.032 44.1477 9.468 44.1477 8.844C44.1477 8.22 44.2717 7.66 44.5197 7.164C44.7757 6.66 45.1237 6.268 45.5637 5.988C46.0037 5.708 46.4877 5.568 47.0157 5.568C47.4397 5.568 47.8317 5.656 48.1917 5.832C48.5597 6.008 48.8517 6.232 49.0677 6.504V6.216C49.0677 6.048 49.1197 5.908 49.2237 5.796C49.3277 5.684 49.4637 5.628 49.6317 5.628ZM47.1837 11.064C47.5597 11.064 47.8917 10.968 48.1797 10.776C48.4757 10.584 48.7037 10.32 48.8637 9.984C49.0317 9.648 49.1157 9.268 49.1157 8.844C49.1157 8.428 49.0317 8.052 48.8637 7.716C48.7037 7.38 48.4757 7.116 48.1797 6.924C47.8917 6.724 47.5597 6.624 47.1837 6.624C46.8077 6.624 46.4717 6.72 46.1757 6.912C45.8877 7.104 45.6597 7.368 45.4917 7.704C45.3317 8.04 45.2517 8.42 45.2517 8.844C45.2517 9.268 45.3317 9.648 45.4917 9.984C45.6597 10.32 45.8877 10.584 46.1757 10.776C46.4717 10.968 46.8077 11.064 47.1837 11.064ZM53.1388 11.424C53.1388 11.584 53.0828 11.72 52.9708 11.832C52.8588 11.944 52.7228 12 52.5628 12C52.4028 12 52.2668 11.944 52.1548 11.832C52.0508 11.72 51.9988 11.584 51.9988 11.424V3.696C51.9988 3.536 52.0548 3.4 52.1668 3.288C52.2788 3.176 52.4148 3.12 52.5748 3.12C52.7348 3.12 52.8668 3.176 52.9708 3.288C53.0828 3.4 53.1388 3.536 53.1388 3.696V11.424ZM60.0739 11.004C60.1939 11.132 60.2539 11.272 60.2539 11.424C60.2539 11.584 60.1899 11.72 60.0619 11.832C59.9419 11.936 59.8139 11.988 59.6779 11.988C59.5019 11.988 59.3619 11.924 59.2579 11.796L56.8939 9.288L56.1739 9.936V11.424C56.1739 11.584 56.1179 11.72 56.0059 11.832C55.9019 11.944 55.7699 12 55.6099 12C55.4419 12 55.3019 11.944 55.1899 11.832C55.0859 11.72 55.0339 11.584 55.0339 11.424V3.696C55.0339 3.536 55.0859 3.4 55.1899 3.288C55.3019 3.176 55.4419 3.12 55.6099 3.12C55.7699 3.12 55.9019 3.176 56.0059 3.288C56.1179 3.4 56.1739 3.536 56.1739 3.696V8.568L59.1139 5.868C59.2499 5.748 59.3899 5.688 59.5339 5.688C59.6699 5.688 59.7939 5.748 59.9059 5.868C60.0179 5.98 60.0739 6.1 60.0739 6.228C60.0739 6.388 59.9979 6.532 59.8459 6.66L57.7699 8.508L60.0739 11.004Z" fill="black"/>
</svg>
