<svg width="81" height="15" viewBox="0 0 81 15" fill="none" xmlns="http://www.w3.org/2000/svg">
<path d="M10.75 2.61111V3.22222H9.5V2.61111C9.5 2.275 9.21875 2 8.875 2H5.125C4.78125 2 4.5 2.275 4.5 2.61111V3.22222H3.25V2.61111C3.25 2.275 2.96875 2 2.625 2C2.28125 2 2 2.275 2 2.61111V12.3889C2 12.725 2.28125 13 2.625 13C2.96875 13 3.25 12.725 3.25 12.3889V11.7778H4.5V12.3889C4.5 12.725 4.78125 13 5.125 13H8.875C9.21875 13 9.5 12.725 9.5 12.3889V11.7778H10.75V12.3889C10.75 12.725 11.0312 13 11.375 13C11.7188 13 12 12.725 12 12.3889V2.61111C12 2.275 11.7188 2 11.375 2C11.0312 2 10.75 2.275 10.75 2.61111ZM4.5 10.5556H3.25V9.33333H4.5V10.5556ZM4.5 8.11111H3.25V6.88889H4.5V8.11111ZM4.5 5.66667H3.25V4.44444H4.5V5.66667ZM10.75 10.5556H9.5V9.33333H10.75V10.5556ZM10.75 8.11111H9.5V6.88889H10.75V8.11111ZM10.75 5.66667H9.5V4.44444H10.75V5.66667Z" fill="black"/>
<path d="M19.78 4.008C20.028 4.136 20.152 4.34 20.152 4.62C20.152 4.788 20.092 4.952 19.972 5.112C19.844 5.28 19.68 5.364 19.48 5.364C19.344 5.364 19.208 5.328 19.072 5.256C18.68 5.072 18.256 4.98 17.8 4.98C17.24 4.98 16.752 5.1 16.336 5.34C15.92 5.572 15.6 5.904 15.376 6.336C15.152 6.76 15.04 7.248 15.04 7.8C15.04 8.744 15.292 9.46 15.796 9.948C16.308 10.436 16.976 10.68 17.8 10.68C18.288 10.68 18.712 10.588 19.072 10.404C19.216 10.34 19.344 10.308 19.456 10.308C19.664 10.308 19.84 10.396 19.984 10.572C20.104 10.724 20.164 10.888 20.164 11.064C20.164 11.192 20.132 11.308 20.068 11.412C20.004 11.516 19.912 11.596 19.792 11.652C19.168 11.964 18.504 12.12 17.8 12.12C17.016 12.12 16.296 11.956 15.64 11.628C14.984 11.292 14.46 10.8 14.068 10.152C13.676 9.504 13.48 8.72 13.48 7.8C13.48 6.984 13.664 6.252 14.032 5.604C14.408 4.956 14.924 4.452 15.58 4.092C16.236 3.724 16.976 3.54 17.8 3.54C18.512 3.54 19.172 3.696 19.78 4.008ZM22.6594 11.268C22.6594 11.476 22.5914 11.652 22.4554 11.796C22.3194 11.932 22.1474 12 21.9394 12C21.7314 12 21.5594 11.932 21.4234 11.796C21.2874 11.652 21.2194 11.476 21.2194 11.268V6.312C21.2194 6.104 21.2874 5.932 21.4234 5.796C21.5594 5.652 21.7314 5.58 21.9394 5.58C22.1474 5.58 22.3194 5.652 22.4554 5.796C22.5914 5.932 22.6594 6.104 22.6594 6.312V11.268ZM21.9274 4.8C21.6554 4.8 21.4634 4.756 21.3514 4.668C21.2394 4.58 21.1834 4.424 21.1834 4.2V3.972C21.1834 3.748 21.2434 3.592 21.3634 3.504C21.4834 3.416 21.6754 3.372 21.9394 3.372C22.2194 3.372 22.4154 3.416 22.5274 3.504C22.6394 3.592 22.6954 3.748 22.6954 3.972V4.2C22.6954 4.432 22.6354 4.592 22.5154 4.68C22.4034 4.76 22.2074 4.8 21.9274 4.8ZM27.5714 5.46C28.3874 5.46 28.9514 5.704 29.2634 6.192C29.5754 6.672 29.7314 7.34 29.7314 8.196V11.268C29.7314 11.476 29.6634 11.652 29.5274 11.796C29.3914 11.932 29.2194 12 29.0114 12C28.8034 12 28.6314 11.932 28.4954 11.796C28.3594 11.652 28.2914 11.476 28.2914 11.268V8.196C28.2914 7.756 28.1994 7.412 28.0154 7.164C27.8314 6.908 27.5154 6.78 27.0674 6.78C26.6034 6.78 26.2394 6.916 25.9754 7.188C25.7114 7.452 25.5794 7.788 25.5794 8.196V11.268C25.5794 11.476 25.5114 11.652 25.3754 11.796C25.2394 11.932 25.0674 12 24.8594 12C24.6514 12 24.4794 11.932 24.3434 11.796C24.2074 11.652 24.1394 11.476 24.1394 11.268V6.312C24.1394 6.104 24.2074 5.932 24.3434 5.796C24.4794 5.652 24.6514 5.58 24.8594 5.58C25.0674 5.58 25.2394 5.652 25.3754 5.796C25.5114 5.932 25.5794 6.104 25.5794 6.312V6.516C25.7954 6.228 26.0754 5.98 26.4194 5.772C26.7714 5.564 27.1554 5.46 27.5714 5.46ZM37.0478 8.64C37.0398 8.832 36.9638 8.988 36.8198 9.108C36.6758 9.228 36.5078 9.288 36.3158 9.288H32.3558C32.4518 9.76 32.6718 10.132 33.0158 10.404C33.3598 10.668 33.7478 10.8 34.1798 10.8C34.5078 10.8 34.7638 10.772 34.9478 10.716C35.1318 10.652 35.2758 10.588 35.3798 10.524C35.4918 10.452 35.5678 10.404 35.6078 10.38C35.7518 10.308 35.8878 10.272 36.0158 10.272C36.1838 10.272 36.3278 10.332 36.4478 10.452C36.5678 10.572 36.6278 10.712 36.6278 10.872C36.6278 11.088 36.5158 11.284 36.2918 11.46C36.0678 11.644 35.7678 11.8 35.3918 11.928C35.0158 12.056 34.6358 12.12 34.2518 12.12C33.5798 12.12 32.9918 11.98 32.4878 11.7C31.9918 11.42 31.6078 11.036 31.3358 10.548C31.0638 10.052 30.9278 9.496 30.9278 8.88C30.9278 8.192 31.0718 7.588 31.3598 7.068C31.6478 6.548 32.0278 6.152 32.4998 5.88C32.9718 5.6 33.4758 5.46 34.0118 5.46C34.5398 5.46 35.0358 5.604 35.4998 5.892C35.9718 6.18 36.3478 6.568 36.6278 7.056C36.9078 7.544 37.0478 8.072 37.0478 8.64ZM34.0118 6.78C33.0838 6.78 32.5358 7.216 32.3678 8.088H35.5118V8.004C35.4798 7.668 35.3158 7.38 35.0198 7.14C34.7238 6.9 34.3878 6.78 34.0118 6.78ZM45.6528 5.46C46.4448 5.46 46.9928 5.704 47.2968 6.192C47.6008 6.672 47.7528 7.34 47.7528 8.196V11.268C47.7528 11.476 47.6848 11.652 47.5488 11.796C47.4128 11.932 47.2408 12 47.0328 12C46.8248 12 46.6528 11.932 46.5168 11.796C46.3808 11.652 46.3128 11.476 46.3128 11.268V8.196C46.3128 7.756 46.2248 7.412 46.0488 7.164C45.8808 6.908 45.5808 6.78 45.1488 6.78C44.7008 6.78 44.3488 6.916 44.0928 7.188C43.8448 7.452 43.7208 7.788 43.7208 8.196V11.268C43.7208 11.476 43.6528 11.652 43.5168 11.796C43.3808 11.932 43.2088 12 43.0008 12C42.7928 12 42.6208 11.932 42.4848 11.796C42.3488 11.652 42.2808 11.476 42.2808 11.268V8.196C42.2808 7.756 42.1928 7.412 42.0168 7.164C41.8488 6.908 41.5488 6.78 41.1168 6.78C40.6688 6.78 40.3168 6.916 40.0608 7.188C39.8128 7.452 39.6888 7.788 39.6888 8.196V11.268C39.6888 11.476 39.6208 11.652 39.4848 11.796C39.3488 11.932 39.1768 12 38.9688 12C38.7608 12 38.5888 11.932 38.4528 11.796C38.3168 11.652 38.2488 11.476 38.2488 11.268V6.312C38.2488 6.104 38.3168 5.932 38.4528 5.796C38.5888 5.652 38.7608 5.58 38.9688 5.58C39.1768 5.58 39.3488 5.652 39.4848 5.796C39.6208 5.932 39.6888 6.104 39.6888 6.312V6.504C39.9048 6.216 40.1768 5.972 40.5048 5.772C40.8408 5.564 41.2128 5.46 41.6208 5.46C42.6288 5.46 43.2728 5.9 43.5528 6.78C43.7368 6.444 44.0128 6.14 44.3808 5.868C44.7568 5.596 45.1808 5.46 45.6528 5.46ZM54.5073 5.46C54.7153 5.46 54.8873 5.528 55.0233 5.664C55.1593 5.8 55.2273 5.976 55.2273 6.192V11.268C55.2273 11.476 55.1593 11.652 55.0233 11.796C54.8873 11.932 54.7153 12 54.5073 12C54.2993 12 54.1273 11.932 53.9913 11.796C53.8633 11.66 53.7953 11.488 53.7873 11.28C53.5873 11.512 53.3153 11.712 52.9713 11.88C52.6353 12.04 52.2793 12.12 51.9033 12.12C51.3513 12.12 50.8513 11.98 50.4033 11.7C49.9553 11.412 49.5993 11.016 49.3353 10.512C49.0793 10.008 48.9513 9.436 48.9513 8.796C48.9513 8.156 49.0793 7.584 49.3353 7.08C49.5913 6.568 49.9393 6.172 50.3793 5.892C50.8273 5.604 51.3193 5.46 51.8553 5.46C52.2393 5.46 52.5993 5.532 52.9353 5.676C53.2713 5.812 53.5553 5.988 53.7873 6.204V6.192C53.7873 5.984 53.8553 5.812 53.9913 5.676C54.1273 5.532 54.2993 5.46 54.5073 5.46ZM52.0833 10.8C52.6033 10.8 53.0273 10.612 53.3553 10.236C53.6833 9.852 53.8473 9.372 53.8473 8.796C53.8473 8.22 53.6833 7.74 53.3553 7.356C53.0273 6.972 52.6033 6.78 52.0833 6.78C51.5713 6.78 51.1513 6.972 50.8233 7.356C50.4953 7.74 50.3313 8.22 50.3313 8.796C50.3313 9.372 50.4913 9.852 50.8113 10.236C51.1393 10.612 51.5633 10.8 52.0833 10.8ZM62.4518 3.6C62.6198 3.6 62.7558 3.652 62.8598 3.756C62.9718 3.852 63.0278 3.984 63.0278 4.152C63.0278 4.32 62.9718 4.452 62.8598 4.548C62.7558 4.644 62.6198 4.692 62.4518 4.692H60.3158V11.424C60.3158 11.584 60.2558 11.72 60.1358 11.832C60.0238 11.944 59.8798 12 59.7038 12C59.5278 12 59.3798 11.944 59.2598 11.832C59.1478 11.72 59.0918 11.584 59.0918 11.424V4.692H56.9678C56.7998 4.692 56.6598 4.644 56.5478 4.548C56.4438 4.444 56.3918 4.308 56.3918 4.14C56.3918 3.98 56.4438 3.852 56.5478 3.756C56.6598 3.652 56.7998 3.6 56.9678 3.6H62.4518ZM68.1708 5.628C68.3388 5.628 68.4748 5.684 68.5788 5.796C68.6908 5.9 68.7468 6.04 68.7468 6.216V11.424C68.7468 11.584 68.6908 11.72 68.5788 11.832C68.4748 11.944 68.3388 12 68.1708 12C68.0028 12 67.8668 11.948 67.7628 11.844C67.6588 11.732 67.6068 11.592 67.6068 11.424V11.112C67.3988 11.392 67.1148 11.632 66.7548 11.832C66.3948 12.024 66.0068 12.12 65.5908 12.12C65.0468 12.12 64.5508 11.98 64.1028 11.7C63.6628 11.42 63.3148 11.032 63.0588 10.536C62.8108 10.032 62.6868 9.468 62.6868 8.844C62.6868 8.22 62.8108 7.66 63.0588 7.164C63.3148 6.66 63.6628 6.268 64.1028 5.988C64.5428 5.708 65.0268 5.568 65.5548 5.568C65.9788 5.568 66.3708 5.656 66.7308 5.832C67.0988 6.008 67.3908 6.232 67.6068 6.504V6.216C67.6068 6.048 67.6588 5.908 67.7628 5.796C67.8668 5.684 68.0028 5.628 68.1708 5.628ZM65.7228 11.064C66.0988 11.064 66.4308 10.968 66.7188 10.776C67.0148 10.584 67.2428 10.32 67.4028 9.984C67.5708 9.648 67.6548 9.268 67.6548 8.844C67.6548 8.428 67.5708 8.052 67.4028 7.716C67.2428 7.38 67.0148 7.116 66.7188 6.924C66.4308 6.724 66.0988 6.624 65.7228 6.624C65.3468 6.624 65.0108 6.72 64.7148 6.912C64.4268 7.104 64.1988 7.368 64.0308 7.704C63.8708 8.04 63.7908 8.42 63.7908 8.844C63.7908 9.268 63.8708 9.648 64.0308 9.984C64.1988 10.32 64.4268 10.584 64.7148 10.776C65.0108 10.968 65.3468 11.064 65.7228 11.064ZM71.6778 11.424C71.6778 11.584 71.6218 11.72 71.5098 11.832C71.3978 11.944 71.2618 12 71.1018 12C70.9418 12 70.8058 11.944 70.6938 11.832C70.5898 11.72 70.5378 11.584 70.5378 11.424V3.696C70.5378 3.536 70.5938 3.4 70.7058 3.288C70.8178 3.176 70.9538 3.12 71.1138 3.12C71.2738 3.12 71.4058 3.176 71.5098 3.288C71.6218 3.4 71.6778 3.536 71.6778 3.696V11.424ZM78.613 11.004C78.733 11.132 78.793 11.272 78.793 11.424C78.793 11.584 78.729 11.72 78.601 11.832C78.481 11.936 78.353 11.988 78.217 11.988C78.041 11.988 77.901 11.924 77.797 11.796L75.433 9.288L74.713 9.936V11.424C74.713 11.584 74.657 11.72 74.545 11.832C74.441 11.944 74.309 12 74.149 12C73.981 12 73.841 11.944 73.729 11.832C73.625 11.72 73.573 11.584 73.573 11.424V3.696C73.573 3.536 73.625 3.4 73.729 3.288C73.841 3.176 73.981 3.12 74.149 3.12C74.309 3.12 74.441 3.176 74.545 3.288C74.657 3.4 74.713 3.536 74.713 3.696V8.568L77.653 5.868C77.789 5.748 77.929 5.688 78.073 5.688C78.209 5.688 78.333 5.748 78.445 5.868C78.557 5.98 78.613 6.1 78.613 6.228C78.613 6.388 78.537 6.532 78.385 6.66L76.309 8.508L78.613 11.004Z" fill="black"/>
</svg>
